<svg width="24" height="24" viewBox="0 0 24 24" fill="none" xmlns="http://www.w3.org/2000/svg">
<g clip-path="url(#clip0_1658_7316)">
<path d="M13.0583 3.28341C12.7771 3.00251 12.3958 2.84473 11.9983 2.84473C11.6008 2.84473 11.2196 3.00251 10.9383 3.28341L5.27932 8.93941C4.99793 9.2208 4.83984 9.60245 4.83984 10.0004C4.83984 10.3984 4.99793 10.78 5.27932 11.0614C5.56072 11.3428 5.94237 11.5009 6.34032 11.5009C6.73828 11.5009 7.11993 11.3428 7.40132 11.0614L10.4983 7.96541V19.5004C10.4983 19.8982 10.6564 20.2798 10.9377 20.5611C11.219 20.8424 11.6005 21.0004 11.9983 21.0004C12.3961 21.0004 12.7777 20.8424 13.059 20.5611C13.3403 20.2798 13.4983 19.8982 13.4983 19.5004V7.96541L16.5943 11.0614C16.7337 11.2007 16.8991 11.3113 17.0811 11.3867C17.2632 11.4621 17.4583 11.5009 17.6553 11.5009C17.8524 11.5009 18.0475 11.4621 18.2295 11.3867C18.4116 11.3113 18.577 11.2007 18.7163 11.0614C18.8557 10.9221 18.9662 10.7567 19.0416 10.5746C19.117 10.3926 19.1558 10.1975 19.1558 10.0004C19.1558 9.80336 19.117 9.60824 19.0416 9.4262C18.9662 9.24415 18.8557 9.07874 18.7163 8.93941L13.0583 3.28341Z" fill="black"/>
</g>
<defs>
<clipPath id="clip0_1658_7316">
<rect width="24" height="24" fill="white"/>
</clipPath>
</defs>
</svg>
