<?xml version="1.0" encoding="utf-8"?>
<!-- Generator: Adobe Illustrator 27.0.0, SVG Export Plug-In . SVG Version: 6.00 Build 0)  -->
<svg version="1.1" id="Layer_1" xmlns="http://www.w3.org/2000/svg" xmlns:xlink="http://www.w3.org/1999/xlink" x="0px" y="0px"
	 viewBox="0 0 50 100" style="enable-background:new 0 0 50 100;" xml:space="preserve">
<style type="text/css">
	.st0{fill:#008000;}
	.st1{fill:#D2BE1E;}
	.st2{fill:#FFD700;}
	.st3{fill:#5C3317;}
	.st4{fill:#006400;}
</style>
<rect x="23.4" y="48.1" class="st0" width="3.5" height="32.9"/>
<rect x="16" y="27.6" class="st1" width="18.4" height="18.4"/>
<rect x="20.5" y="22.5" class="st2" width="9.3" height="9.3"/>
<rect x="20.5" y="32.2" class="st3" width="9.3" height="9.3"/>
<rect x="29.7" y="32.2" class="st2" width="9.3" height="9.3"/>
<rect x="11" y="32.2" class="st2" width="9.3" height="9.3"/>
<rect x="20.5" y="41.2" class="st2" width="9.3" height="9.3"/>
<rect x="26.9" y="59.5" class="st4" width="4.4" height="4.4"/>
<rect x="31.3" y="55.1" class="st4" width="4.4" height="4.4"/>
<rect x="19.1" y="67.2" transform="matrix(-1 -1.224647e-16 1.224647e-16 -1 42.4999 138.7832)" class="st4" width="4.4" height="4.4"/>
<rect x="14.6" y="62.8" transform="matrix(-1 -1.224647e-16 1.224647e-16 -1 33.6601 130.0266)" class="st4" width="4.4" height="4.4"/>
</svg>
