<svg width="24" height="24" viewBox="0 0 24 24" fill="none" xmlns="http://www.w3.org/2000/svg">
<g clip-path="url(#clip0_34_249)">
<path fill-rule="evenodd" clip-rule="evenodd" d="M6.13927 6.38221C6.91734 7.01471 7.2088 6.96596 8.66986 6.86971L22.4462 6.0422C22.7376 6.0422 22.4949 5.75095 22.3974 5.7022L20.1095 4.0497C19.6716 3.70969 19.0875 3.32094 17.9679 3.41719L4.62942 4.3897C4.14156 4.43845 4.04524 4.68095 4.23913 4.8772L6.13927 6.38221ZM6.96487 9.59097V24.0748C6.96487 24.8523 7.35515 25.1435 8.23079 25.096L23.3706 24.221C24.2462 24.1723 24.345 23.6373 24.345 23.0048V8.61722C24.345 7.98721 24.1024 7.64596 23.5657 7.69471L7.74419 8.61847C7.16001 8.66722 6.96487 8.95847 6.96487 9.59097ZM21.912 10.3672C22.0096 10.8047 21.912 11.2422 21.4742 11.2922L20.7437 11.4372V22.131C20.1107 22.471 19.5265 22.6648 19.0399 22.6648C18.2606 22.6648 18.0655 22.4223 17.4825 21.6935L12.7103 14.2085V21.4498L14.2202 21.791C14.2202 21.791 14.2202 22.666 13.003 22.666L9.64432 22.8598C9.54675 22.6648 9.64432 22.1798 9.98457 22.0823L10.8602 21.8398V12.2647L9.64432 12.166C9.54675 11.7285 9.78943 11.0972 10.4724 11.0485L14.0751 10.806L19.0412 18.3885V11.681L17.774 11.536C17.6764 10.9997 18.0655 10.611 18.5533 10.5635L21.912 10.3672ZM3.50985 3.07719L17.3825 2.05719C19.0875 1.91094 19.5253 2.00844 20.5973 2.78594L25.0255 5.89595C25.7561 6.43096 26 6.57721 26 7.15971V24.221C26 25.2898 25.6097 25.921 24.2475 26.0185L8.13572 26.991C7.11123 27.041 6.62462 26.8948 6.08923 26.2135L2.8281 21.9848C2.24393 21.206 2 20.6235 2 19.9423V4.77845C2 3.90344 2.39028 3.17469 3.5086 3.07844" fill="black"/>
</g>
<defs>
<clipPath id="clip0_34_249">
<rect width="24" height="24" fill="white"/>
</clipPath>
</defs>
</svg>
